<svg width="16" height="17" viewBox="0 0 16 17" fill="none" xmlns="http://www.w3.org/2000/svg">
<path d="M6.68865 7.51068L8.98931 9.81068M9.83331 8.99735L5.16665 13.6667C5.014 13.8224 4.832 13.9464 4.63115 14.0314C4.43031 14.1164 4.21461 14.1607 3.99653 14.1618C3.77845 14.1629 3.56231 14.1207 3.36062 14.0378C3.15893 13.9548 2.97568 13.8327 2.82147 13.6785C2.66726 13.5243 2.54515 13.3411 2.4622 13.1394C2.37926 12.9377 2.33712 12.7215 2.33822 12.5035C2.33932 12.2854 2.38364 12.0697 2.46862 11.8688C2.5536 11.668 2.67756 11.486 2.83331 11.3333L7.50131 6.66535C7.81185 6.36227 8.2293 6.19378 8.66322 6.19638C9.09713 6.19898 9.51253 6.37248 9.8194 6.67926C10.1263 6.98605 10.2999 7.4014 10.3026 7.83531C10.3053 8.26922 10.137 8.68673 9.83398 8.99735H9.83331Z" stroke="#FEFFFF"/>
<path d="M12 9.33334V11.6667M13.1667 10.5H10.8333M11.3333 3.33334V5.66668M12.5 4.50001H10.1667M4.66667 4.00001V6.33334M5.83333 5.16668H3.5" stroke="#FEFFFF" stroke-linecap="round" stroke-linejoin="round"/>
</svg>
