<svg width="18" height="18" viewBox="0 0 18 18" fill="none" xmlns="http://www.w3.org/2000/svg">
<path fill-rule="evenodd" clip-rule="evenodd" d="M8.99988 0.000238882C7.46948 0.000238882 6.20448 0.135028 5.23081 0.299119L5.11863 0.318374C4.27306 0.459861 3.56981 0.577906 3.01977 1.25436C2.66815 1.68887 2.55345 2.15854 2.5275 2.68178L2.1156 2.81909C1.72798 2.94801 1.38724 3.06187 1.1185 3.18745C0.827152 3.32308 0.560086 3.49722 0.355809 3.78103C0.151533 4.06484 0.0703246 4.37292 0.0334879 4.6919C-3.11881e-08 4.98743 0 5.34491 0 5.7543V5.87569C0 6.21225 -2.3391e-08 6.50945 0.0251159 6.7581C0.0519063 7.02684 0.111347 7.28889 0.259531 7.54172C0.40939 7.79539 0.608643 7.97455 0.831338 8.1286C1.03645 8.27092 1.29598 8.41575 1.59068 8.57901L3.80088 9.80718C4.25297 10.6954 4.87333 11.4874 5.72644 12.0592C6.46903 12.5582 7.36065 12.8713 8.41635 12.9542C8.38795 13.0283 8.37292 13.1068 8.37198 13.1861V14.6512H7.17479C6.83607 14.6512 6.50782 14.7686 6.2459 14.9834C5.98397 15.1981 5.80454 15.497 5.73816 15.8291L5.55481 16.7442H3.97669C3.81016 16.7442 3.65045 16.8104 3.5327 16.9281C3.41495 17.0459 3.34879 17.2056 3.34879 17.3721C3.34879 17.5386 3.41495 17.6983 3.5327 17.8161C3.65045 17.9338 3.81016 18 3.97669 18H14.0231C14.1896 18 14.3493 17.9338 14.4671 17.8161C14.5848 17.6983 14.651 17.5386 14.651 17.3721C14.651 17.2056 14.5848 17.0459 14.4671 16.9281C14.3493 16.8104 14.1896 16.7442 14.0231 16.7442H12.445L12.2616 15.8291C12.1952 15.497 12.0158 15.1981 11.7539 14.9834C11.4919 14.7686 11.1637 14.6512 10.825 14.6512H9.62778V13.1861C9.62684 13.1068 9.61181 13.0283 9.58341 12.9542C10.6391 12.8705 11.5307 12.5582 12.2733 12.0601C13.1273 11.4874 13.7468 10.6954 14.1989 9.80718L16.4091 8.57901C16.7038 8.41575 16.9633 8.27092 17.1684 8.1286C17.3903 7.97455 17.5904 7.79539 17.7394 7.54256C17.8884 7.28889 17.9487 7.02684 17.9746 6.7581C17.9998 6.50945 17.9998 6.21225 17.9998 5.87569V5.7543C17.9998 5.34575 17.9998 4.98743 17.9663 4.6919C17.9294 4.37292 17.8491 4.064 17.644 3.78103C17.4397 3.49722 17.1726 3.32308 16.8821 3.18662C16.6117 3.06104 16.2718 2.94801 15.8842 2.81909L15.4723 2.68178C15.4471 2.1577 15.3324 1.68887 14.98 1.25436C14.4308 0.577068 13.7275 0.459023 12.882 0.318374L12.7689 0.299119C11.5231 0.0944109 10.2624 -0.00556534 8.99988 0.000238882ZM11.164 16.7442L11.0301 16.0753C11.0206 16.0279 10.995 15.9852 10.9576 15.9545C10.9202 15.9238 10.8733 15.907 10.825 15.907H7.17479C7.12642 15.907 7.07956 15.9238 7.04216 15.9545C7.00477 15.9852 6.97916 16.0279 6.96968 16.0753L6.83572 16.7442H11.164ZM2.54341 4.00037L2.55513 3.99619C2.61541 5.26873 2.75857 6.67522 3.11689 7.98962L2.22444 7.49484C1.89877 7.31316 1.69449 7.19931 1.54714 7.09717C1.41152 7.00256 1.36714 6.94647 1.34287 6.90461C1.31775 6.86275 1.29096 6.79745 1.27422 6.63336C1.25691 6.37198 1.25077 6.10997 1.2558 5.84807V5.78695C1.2558 5.3357 1.25663 5.05022 1.28091 4.83422C1.30435 4.63497 1.34119 4.56046 1.37468 4.51525C1.40733 4.4692 1.46593 4.4106 1.64761 4.32604C1.84518 4.23395 2.11644 4.14353 2.54341 4.00037ZM15.4446 3.99535C15.3852 5.26789 15.2412 6.67438 14.8837 7.98878L15.7753 7.494C16.101 7.31233 16.3053 7.19847 16.4526 7.09633C16.5882 7.00173 16.6326 6.94563 16.6569 6.90377C16.682 6.86192 16.7088 6.79661 16.7255 6.63252C16.7431 6.45336 16.744 6.21978 16.744 5.84723V5.78612C16.744 5.33487 16.7431 5.04938 16.7188 4.83338C16.6954 4.63413 16.6586 4.55962 16.6251 4.51441C16.5924 4.46837 16.5338 4.40976 16.3522 4.3252C16.1546 4.23311 15.8833 4.14186 15.4564 3.9987L15.4446 3.99535ZM5.44011 1.53733C6.61681 1.34471 7.80753 1.25062 8.99988 1.25604C10.4566 1.25604 11.6513 1.38413 12.5596 1.53733C13.5701 1.70812 13.782 1.77175 14.0055 2.04635C14.2248 2.31593 14.2458 2.57211 14.2006 3.70651C14.1252 5.59691 13.8757 7.638 13.1038 9.19016C12.7221 9.95536 12.2231 10.5816 11.5743 11.0169C10.9288 11.4498 10.0958 11.721 8.99988 11.721C7.90399 11.721 7.07181 11.4498 6.42633 11.0169C5.77667 10.5816 5.2777 9.95536 4.89677 9.18933C4.12404 7.638 3.87539 5.59775 3.80004 3.70568C3.75483 2.57211 3.77493 2.31593 3.99511 2.04635C4.2178 1.77175 4.42962 1.70812 5.44011 1.53733Z" fill="#FEFFFF"/>
</svg>
