<svg width="18" height="18" viewBox="0 0 18 18" fill="none" xmlns="http://www.w3.org/2000/svg">
<path d="M1.818 18C1.29975 18 0.867375 17.8267 0.520875 17.4802C0.174375 17.1337 0.00075 16.701 0 16.182V1.818C0 1.29975 0.173625 0.867375 0.520875 0.520875C0.868125 0.174375 1.3005 0.00075 1.818 0H16.1831C16.7006 0 17.133 0.173625 17.4802 0.520875C17.8275 0.868125 18.0007 1.3005 18 1.818V16.1831C18 16.7006 17.8267 17.133 17.4802 17.4802C17.1337 17.8275 16.701 18.0007 16.182 18H1.818ZM1.818 16.875H16.1831C16.3556 16.875 16.5142 16.803 16.659 16.659C16.8037 16.515 16.8757 16.356 16.875 16.182V4.67325H1.125V16.182C1.125 16.356 1.197 16.515 1.341 16.659C1.485 16.803 1.64362 16.875 1.81687 16.875" fill="#FEFFFF"/>
</svg>
