<svg width="20" height="20" viewBox="0 0 20 20" fill="none" xmlns="http://www.w3.org/2000/svg">
<path d="M14 2.75C14 2.55109 14.079 2.36032 14.2197 2.21967C14.3603 2.07902 14.5511 2 14.75 2H17.25C17.4489 2 17.6397 2.07902 17.7803 2.21967C17.921 2.36032 18 2.55109 18 2.75V5.25C18 5.44891 17.921 5.63968 17.7803 5.78033C17.6397 5.92098 17.4489 6 17.25 6C17.0511 6 16.8603 5.92098 16.7197 5.78033C16.579 5.63968 16.5 5.44891 16.5 5.25V4.56L12.03 9.03C11.8894 9.17045 11.6988 9.24934 11.5 9.24934C11.3013 9.24934 11.1106 9.17045 10.97 9.03L8.5 6.56L4.28 10.78C4.21134 10.8537 4.12854 10.9128 4.03654 10.9538C3.94454 10.9948 3.84523 11.0168 3.74452 11.0186C3.64382 11.0204 3.54379 11.0018 3.4504 10.9641C3.35702 10.9264 3.27218 10.8703 3.20096 10.799C3.12974 10.7278 3.0736 10.643 3.03588 10.5496C2.99816 10.4562 2.97963 10.3562 2.98141 10.2555C2.98319 10.1548 3.00523 10.0555 3.04622 9.96346C3.08721 9.87146 3.14631 9.78866 3.22 9.72L7.97 4.97C8.11063 4.82955 8.30125 4.75066 8.5 4.75066C8.69875 4.75066 8.88938 4.82955 9.03 4.97L11.5 7.44L15.44 3.5H14.75C14.5511 3.5 14.3603 3.42098 14.2197 3.28033C14.079 3.13968 14 2.94891 14 2.75ZM3.75 14C3.94891 14 4.13968 14.079 4.28033 14.2197C4.42098 14.3603 4.5 14.5511 4.5 14.75V17.25C4.5 17.4489 4.42098 17.6397 4.28033 17.7803C4.13968 17.921 3.94891 18 3.75 18C3.55109 18 3.36032 17.921 3.21967 17.7803C3.07902 17.6397 3 17.4489 3 17.25V14.75C3 14.5511 3.07902 14.3603 3.21967 14.2197C3.36032 14.079 3.55109 14 3.75 14ZM8.5 11.75C8.5 11.5511 8.42098 11.3603 8.28033 11.2197C8.13968 11.079 7.94891 11 7.75 11C7.55109 11 7.36032 11.079 7.21967 11.2197C7.07902 11.3603 7 11.5511 7 11.75V17.25C7 17.4489 7.07902 17.6397 7.21967 17.7803C7.36032 17.921 7.55109 18 7.75 18C7.94891 18 8.13968 17.921 8.28033 17.7803C8.42098 17.6397 8.5 17.4489 8.5 17.25V11.75ZM11.75 13C11.9489 13 12.1397 13.079 12.2803 13.2197C12.421 13.3603 12.5 13.5511 12.5 13.75V17.25C12.5 17.4489 12.421 17.6397 12.2803 17.7803C12.1397 17.921 11.9489 18 11.75 18C11.5511 18 11.3603 17.921 11.2197 17.7803C11.079 17.6397 11 17.4489 11 17.25V13.75C11 13.5511 11.079 13.3603 11.2197 13.2197C11.3603 13.079 11.5511 13 11.75 13ZM16.5 9.75C16.5 9.55109 16.421 9.36032 16.2803 9.21967C16.1397 9.07902 15.9489 9 15.75 9C15.5511 9 15.3603 9.07902 15.2197 9.21967C15.079 9.36032 15 9.55109 15 9.75V17.25C15 17.4489 15.079 17.6397 15.2197 17.7803C15.3603 17.921 15.5511 18 15.75 18C15.9489 18 16.1397 17.921 16.2803 17.7803C16.421 17.6397 16.5 17.4489 16.5 17.25V9.75Z" fill="#BBBCBF"/>
</svg>
