<svg width="20" height="20" viewBox="0 0 20 20" fill="none" xmlns="http://www.w3.org/2000/svg">
<g clip-path="url(#clip0_1_943)">
<path fill-rule="evenodd" clip-rule="evenodd" d="M12.7782 5.84263C11.9559 5.29323 10.9892 4.99998 10.0003 4.99998V-1.90735e-05C11.9781 -1.90735e-05 13.9115 0.586471 15.556 1.68529C17.2005 2.7841 18.4822 4.34589 19.2391 6.17313C19.996 8.00038 20.194 10.0111 19.8082 11.9509C19.4223 13.8907 18.4699 15.6725 17.0714 17.071C15.6729 18.4696 13.891 19.422 11.9512 19.8078C10.0114 20.1937 8.00075 19.9956 6.1735 19.2388C4.34625 18.4819 2.78446 17.2002 1.68565 15.5557C0.586837 13.9112 0.000347137 11.9778 0.000347137 9.99998H5.00035C5.00035 10.9889 5.2936 11.9556 5.843 12.7778C6.3924 13.6001 7.1733 14.2409 8.08695 14.6194C9.00055 14.9978 10.0059 15.0968 10.9758 14.9039C11.9457 14.711 12.8366 14.2348 13.5359 13.5355C14.2351 12.8362 14.7113 11.9453 14.9042 10.9754C15.0972 10.0055 14.9982 9.00018 14.6197 8.08658C14.2413 7.17293 13.6004 6.39203 12.7782 5.84263Z" fill="#FEFFFF"/>
<path fill-rule="evenodd" clip-rule="evenodd" d="M5.00034 -1.69079e-05C5.00034 0.656593 4.87102 1.30677 4.61974 1.9134C4.36847 2.52003 4.00017 3.07122 3.53588 3.53552C3.07159 3.99981 2.52039 4.36811 1.91376 4.61938C1.30713 4.87065 0.656955 4.99998 0.000347356 4.99998L0.000347137 9.99998C1.31356 9.99998 2.61392 9.74133 3.82718 9.23878C5.04044 8.73623 6.14285 7.99963 7.07139 7.07103C7.99999 6.14248 8.73659 5.04008 9.23914 3.82682C9.74169 2.61356 10.0003 1.3132 10.0003 -1.90735e-05L5.00034 -1.69079e-05Z" fill="#FEFFFF"/>
</g>
<defs>
<clipPath id="clip0_1_943">
<rect width="20" height="20" fill="white"/>
</clipPath>
</defs>
</svg>
