<svg width="20" height="20" viewBox="0 0 20 20" fill="none" xmlns="http://www.w3.org/2000/svg">
<path d="M14.25 19V14.235C14.2497 14.026 14.2083 13.8192 14.128 13.6262C14.0477 13.4333 13.9302 13.2581 13.7822 13.1106C13.6341 12.9631 13.4585 12.8462 13.2652 12.7667C13.072 12.6871 12.865 12.6465 12.656 12.647H7.344C7.13503 12.6465 6.92801 12.6871 6.73477 12.7667C6.54153 12.8462 6.36586 12.9631 6.21782 13.1106C6.06978 13.2581 5.95226 13.4333 5.87199 13.6262C5.79171 13.8192 5.75026 14.026 5.75 14.235V19M14.25 1.285V3.647C14.2497 3.85597 14.2083 4.06284 14.128 4.25578C14.0477 4.44871 13.9302 4.62394 13.7822 4.77142C13.6341 4.91891 13.4585 5.03576 13.2652 5.11531C13.072 5.19485 12.865 5.23552 12.656 5.235H7.344C7.13503 5.23552 6.92801 5.19485 6.73477 5.11531C6.54153 5.03576 6.36586 4.91891 6.21782 4.77142C6.06978 4.62394 5.95226 4.44871 5.87199 4.25578C5.79171 4.06284 5.75026 3.85597 5.75 3.647V0.999999M14.25 1.285C13.8353 1.09718 13.3853 1.00002 12.93 0.999999H5.75M14.25 1.285C14.594 1.441 14.911 1.659 15.184 1.93L17.566 4.305C17.8618 4.59932 18.0965 4.94914 18.2568 5.33439C18.4171 5.71964 18.4997 6.13274 18.5 6.55V15.822C18.4997 16.24 18.4171 16.6539 18.2567 17.0399C18.0963 17.426 17.8614 17.7766 17.5654 18.0718C17.2694 18.367 16.9181 18.6009 16.5316 18.7601C16.1451 18.9194 15.731 19.0009 15.313 19H4.688C4.26998 19.001 3.85585 18.9197 3.4693 18.7605C3.08276 18.6014 2.73139 18.3676 2.43529 18.0725C2.13919 17.7774 1.90417 17.4269 1.74369 17.0409C1.5832 16.6549 1.50039 16.241 1.5 15.823V4.176C1.50052 3.75806 1.58343 3.34432 1.74397 2.95844C1.90452 2.57257 2.13956 2.22212 2.43564 1.92715C2.73173 1.63218 3.08306 1.39847 3.46953 1.23938C3.85601 1.08029 4.27006 0.998947 4.688 0.999999H5.75" stroke="#BBBCBF" stroke-width="1.5" stroke-linecap="round" stroke-linejoin="round"/>
</svg>
