<svg width="20" height="21" viewBox="0 0 20 21" fill="none" xmlns="http://www.w3.org/2000/svg">
<path d="M12.4302 2.73574L12.4305 2.7253C12.4475 2.14625 12.2241 1.57213 11.8199 1.15458C11.4149 0.740215 10.8481 0.500977 10.2673 0.500977H9.01432C8.4364 0.500977 7.89591 0.724933 7.48672 1.13468C7.07808 1.54687 6.85709 2.08853 6.86031 2.65011L6.86037 2.66089L6.86026 2.66089C6.84599 3.56271 6.10557 4.29898 5.20632 4.29898H5.20108V4.29895C4.92222 4.29603 4.6493 4.22 4.40238 4.07388C3.36963 3.48283 2.04775 3.84502 1.46578 4.8572L1.45947 4.86818L1.45933 4.8681L0.784715 5.97554C0.196126 7.00428 0.549422 8.32502 1.57647 8.92163L1.32532 9.35398M12.4302 2.73574L1.5756 11.8018C2.08905 11.5055 2.40732 10.9546 2.40732 10.362C2.40732 9.76963 2.08925 9.21729 1.57508 8.92082L1.32532 9.35398M12.4302 2.73574L12.4304 2.74619L12.4302 2.73574ZM1.32532 9.35398C1.68432 9.56098 1.90732 9.94798 1.90732 10.362C1.90732 10.776 1.68432 11.162 1.32532 11.369L0.35432 5.72098C-0.37568 6.98898 0.0583198 8.61798 1.32532 9.35398ZM13.6627 4.27172L13.6627 4.27168C13.2355 4.15986 12.8758 3.88629 12.6505 3.50372C12.6505 3.50371 12.6505 3.5037 12.6505 3.5037L13.0813 3.24998L13.6627 4.27172ZM13.6627 4.27172L13.6688 4.27324M13.6627 4.27172L13.6688 4.27324M13.6688 4.27324C14.0863 4.37692 14.5324 4.32285 14.9152 4.09747C15.9576 3.50431 17.2791 3.86313 17.871 4.8914L17.8713 4.89199M13.6688 4.27324L17.8713 4.89199M17.8713 4.89199L18.4916 5.96625C18.5001 5.98195 18.5046 5.99164 18.5073 5.99814L18.5163 6.01996M17.8713 4.89199L18.5163 6.01996M18.5163 6.01996L18.5274 6.04084M18.5163 6.01996L18.5274 6.04084M18.5274 6.04084C19.0644 7.05559 18.705 8.33601 17.7083 8.91958C17.4558 9.06522 17.247 9.27138 17.102 9.52353C16.8822 9.90504 16.8197 10.3606 16.932 10.7842L16.9322 10.7848L18.5274 6.04084ZM18.7132 13.1039L18.7132 13.1038C18.5666 12.5539 18.1982 12.0755 17.7065 11.7927C17.7064 11.7926 17.7062 11.7925 17.7061 11.7924L17.9553 11.359L18.7132 13.1039ZM18.7132 13.1039C18.8596 13.652 18.7797 14.2499 18.4948 14.7417L17.8326 15.8446L17.8326 15.8446M18.7132 13.1039L17.8326 15.8446M17.8326 15.8446L17.8292 15.8505C17.2371 16.8678 15.9134 17.2225 14.8844 16.628L14.8832 16.6273C14.6399 16.4877 14.3634 16.4132 14.0892 16.4061L14.0892 16.406H14.0763H14.0703C13.6451 16.406 13.2224 16.5842 12.9156 16.8896L12.9148 16.8904C12.602 17.2032 12.4293 17.6224 12.4313 18.065M17.8326 15.8446L12.4313 18.065M12.4313 18.065C12.4243 19.2582 11.4528 20.222 10.2673 20.222H9.01432C7.82122 20.222 6.85032 19.2516 6.85032 18.059H6.85035L6.85029 18.0535C6.84732 17.7851 6.77152 17.5122 6.63112 17.2749C6.40939 16.89 6.04808 16.6087 5.62394 16.4958C5.20517 16.3838 4.7516 16.445 4.37665 16.661C3.86436 16.9454 3.26303 17.0134 2.71606 16.8598C2.17039 16.7052 1.69522 16.3277 1.4173 15.828L1.41737 15.8279L1.41278 15.82L0.788492 14.7443C0.788384 14.7441 0.788275 14.7439 0.788167 14.7437C0.19537 13.7147 0.548759 12.3959 1.57508 11.8021L12.4313 18.065ZM7.84258 1.48562L7.84096 1.48723C7.53009 1.79953 7.359 2.21642 7.3603 2.65728C7.34085 3.84457 6.3694 4.79752 5.20001 4.79897C4.82356 4.79445 4.46452 4.69296 4.15492 4.50784L4.15498 4.50774L4.14553 4.50237C3.36198 4.05668 2.3493 4.33003 1.8922 5.11797L1.21814 6.22614L1.21802 6.22606L1.21209 6.23635C0.762015 7.01745 1.04045 8.03141 1.82597 8.48821L1.82686 8.48873C2.49165 8.87348 2.90732 9.59269 2.90732 10.362C2.90732 11.1308 2.49204 11.8492 1.82493 12.2352L1.82471 12.2353C1.03757 12.6913 0.764929 13.7036 1.22146 14.4932L1.2218 14.4938L1.85064 15.5781C2.06937 15.9694 2.42974 16.2594 2.8559 16.3793L2.85699 16.3796C3.27476 16.4961 3.73456 16.4474 4.12214 16.2321L4.12221 16.2322L4.1324 16.2262C4.44954 16.0401 4.82361 15.941 5.20232 15.941C5.38892 15.941 5.57425 15.9646 5.75464 16.0129C6.30235 16.1604 6.77982 16.5282 7.06155 17.0197L7.0615 17.0197L7.06528 17.0261C7.24569 17.3302 7.34676 17.6879 7.35032 18.0535C7.35166 18.9768 8.09533 19.722 9.01432 19.722H10.2673C11.1807 19.722 11.927 18.9824 11.9313 18.0673L11.9313 18.0621C11.9281 17.4907 12.1507 16.9477 12.5619 16.5365C12.9709 16.1275 13.5369 15.89 14.084 15.9058L14.0863 15.9058C14.4596 15.9148 14.8177 16.0154 15.1327 16.1944C15.9259 16.648 16.9387 16.3794 17.4003 15.5942C17.4008 15.5933 17.4013 15.5925 17.4018 15.5916L18.0631 14.4892L18.0631 14.4892L18.0668 14.483C18.2823 14.1116 18.3421 13.655 18.2296 13.2337C18.1175 12.8104 17.8376 12.4442 17.4572 12.2263C16.9545 11.9365 16.5981 11.4721 16.4495 10.9135L16.4493 10.9125C16.303 10.3669 16.3831 9.76688 16.6695 9.27434L16.6708 9.27221C16.8565 8.94919 17.1297 8.67568 17.4573 8.48757L17.4573 8.48758L17.4608 8.48558C18.241 8.02923 18.5095 7.0165 18.0596 6.22816L18.0596 6.22813L18.0558 6.2216C18.0537 6.21811 18.0525 6.21586 18.052 6.21475C18.0518 6.21441 18.0517 6.21418 18.0516 6.21404L18.0395 6.185L18.0234 6.15716L17.4378 5.14181C17.4377 5.14162 17.4376 5.14142 17.4375 5.14123C17.4375 5.14121 17.4375 5.14118 17.4374 5.14116C16.9801 4.34625 15.9653 4.07536 15.171 4.52742L15.171 4.52736L15.1638 4.5316C14.6769 4.81956 14.0983 4.90244 13.5395 4.75543L13.5377 4.75496C12.9794 4.61031 12.5137 4.25859 12.222 3.7596L12.222 3.75959L12.2193 3.75506C12.0369 3.45064 11.9359 3.09386 11.9314 2.72921C11.9412 2.26267 11.7749 1.82762 11.4614 1.50408C11.1484 1.18099 10.7131 1.00098 10.2673 1.00098H9.01432C8.57093 1.00098 8.15444 1.17517 7.84258 1.48562ZM9.64522 7.47508C11.2359 7.47508 12.5312 8.77103 12.5312 10.3621C12.5312 11.9527 11.2363 13.2471 9.64522 13.2471C8.05417 13.2471 6.75922 11.9527 6.75922 10.3621C6.75922 8.77103 8.05455 7.47508 9.64522 7.47508ZM9.64522 7.97508C8.32873 7.97508 7.25922 9.04628 7.25922 10.3621C7.25922 11.6786 8.32942 12.7471 9.64522 12.7471C10.961 12.7471 12.0312 11.6786 12.0312 10.3621C12.0312 9.04628 10.9617 7.97508 9.64522 7.97508Z" fill="white" stroke="#FEFFFF"/>
</svg>
