<svg width="20" height="19" viewBox="0 0 20 19" fill="none" xmlns="http://www.w3.org/2000/svg">
<path d="M1 8.5H19M3 8.5V4.5C3 3.70435 3.31607 2.94129 3.87868 2.37868C4.44129 1.81607 5.20435 1.5 6 1.5H14C14.7956 1.5 15.5587 1.81607 16.1213 2.37868C16.6839 2.94129 17 3.70435 17 4.5V8.5M8 14.5C8 14.894 7.9224 15.2841 7.77164 15.6481C7.62087 16.012 7.3999 16.3427 7.12132 16.6213C6.84274 16.8999 6.51203 17.1209 6.14805 17.2716C5.78407 17.4224 5.39397 17.5 5 17.5C4.60603 17.5 4.21593 17.4224 3.85195 17.2716C3.48797 17.1209 3.15726 16.8999 2.87868 16.6213C2.6001 16.3427 2.37913 16.012 2.22836 15.6481C2.0776 15.2841 2 14.894 2 14.5C2 14.106 2.0776 13.7159 2.22836 13.3519C2.37913 12.988 2.6001 12.6573 2.87868 12.3787C3.15726 12.1001 3.48797 11.8791 3.85195 11.7284C4.21593 11.5776 4.60603 11.5 5 11.5C5.39397 11.5 5.78407 11.5776 6.14805 11.7284C6.51203 11.8791 6.84274 12.1001 7.12132 12.3787C7.3999 12.6573 7.62087 12.988 7.77164 13.3519C7.9224 13.7159 8 14.106 8 14.5ZM8 14.5H12M12 14.5C12 15.2956 12.3161 16.0587 12.8787 16.6213C13.4413 17.1839 14.2044 17.5 15 17.5C15.7956 17.5 16.5587 17.1839 17.1213 16.6213C17.6839 16.0587 18 15.2956 18 14.5C18 13.7044 17.6839 12.9413 17.1213 12.3787C16.5587 11.8161 15.7956 11.5 15 11.5C14.2044 11.5 13.4413 11.8161 12.8787 12.3787C12.3161 12.9413 12 13.7044 12 14.5Z" stroke="#FEFFFF" stroke-width="1.5" stroke-linecap="round" stroke-linejoin="round"/>
</svg>
